<?xml version="1.0" encoding="utf-8"?>
<!-- Generator: Adobe Illustrator 18.0.0, SVG Export Plug-In . SVG Version: 6.00 Build 0)  -->
<!DOCTYPE svg PUBLIC "-//W3C//DTD SVG 1.1//EN" "http://www.w3.org/Graphics/SVG/1.1/DTD/svg11.dtd">
<svg version="1.1" id="Layer_1" xmlns="http://www.w3.org/2000/svg" xmlns:xlink="http://www.w3.org/1999/xlink" x="0px" y="0px"
	 viewBox="0 0 96 200" style="enable-background:new 0 0 96 200;" xml:space="preserve">
<g>
	<path style="fill:#333333;" d="M95,18.6c0,0-11-0.2-14-0.1V4H60.5C58.4,2,54,0.2,48.9,0.2S39.4,2,37.3,4H15v14.5
		c-3-0.1-15,0.1-15,0.1v4.6l15,25.5V132h12v3h14v65h15v-65h14v-3h11V48.6l14-25.4V18.6z"/>
	<circle style="fill:#ED1C24;" cx="48.4" cy="30.1" r="12.2"/>
	<path style="fill:none;stroke:#000000;stroke-width:2;stroke-miterlimit:10;" d="M48.5,30.2"/>
	<path style="fill:none;stroke:#000000;stroke-width:2;stroke-miterlimit:10;" d="M61.8,5.5"/>
	<path style="fill:none;stroke:#000000;stroke-width:2;stroke-miterlimit:10;" d="M36,5.5"/>
	<path style="fill:#FFFFFF;" d="M48.4,13.5c-9.2,0-16.7,7.5-16.7,16.7c0,9.2,7.5,16.7,16.7,16.7s16.7-7.5,16.7-16.7
		C65.1,21,57.6,13.5,48.4,13.5z M48.4,41.8c-6.4,0-11.6-5.2-11.6-11.6s5.2-11.6,11.6-11.6c6.4,0,11.6,5.2,11.6,11.6
		S54.8,41.8,48.4,41.8z"/>
	<path style="fill:#FFFFFF;" d="M48.4,52c-9.2,0-16.7,7.5-16.7,16.7c0,9.2,7.5,16.7,16.7,16.7S65.1,78,65.1,68.7
		C65.1,59.5,57.6,52,48.4,52z M48.4,80.4c-6.4,0-11.6-5.2-11.6-11.6c0-6.4,5.2-11.6,11.6-11.6c6.4,0,11.6,5.2,11.6,11.6
		C60,75.2,54.8,80.4,48.4,80.4z"/>
	<path style="fill:#FFFFFF;" d="M48.4,91.2c-9.2,0-16.7,7.5-16.7,16.7c0,9.2,7.5,16.7,16.7,16.7s16.7-7.5,16.7-16.7
		C65.1,98.7,57.6,91.2,48.4,91.2z M48.4,119.6c-6.4,0-11.6-5.2-11.6-11.6c0-6.4,5.2-11.6,11.6-11.6c6.4,0,11.6,5.2,11.6,11.6
		C60,114.3,54.8,119.6,48.4,119.6z"/>
</g>
</svg>
