<?xml version="1.0" encoding="utf-8"?>
<!-- Generator: Adobe Illustrator 18.0.0, SVG Export Plug-In . SVG Version: 6.00 Build 0)  -->
<!DOCTYPE svg PUBLIC "-//W3C//DTD SVG 1.1//EN" "http://www.w3.org/Graphics/SVG/1.1/DTD/svg11.dtd">
<svg version="1.1" id="Layer_1" xmlns="http://www.w3.org/2000/svg" xmlns:xlink="http://www.w3.org/1999/xlink" x="0px" y="0px"
	 viewBox="0 0 445 394.9" style="enable-background:new 0 0 445 394.9;" xml:space="preserve">
<g>
	<path style="fill:#2E2A25;" d="M421.8,89.2c0,0,0.9-8.1-1.1-14.3c0,0,0.8,17.9-5.2,25.4c-2.2,2.8-4.8,5.3-7.4,7.1
		c-4.3,3-8.7,4.3-12.2,2c-3.3-2.1-6.2-4.1-14.4-6.1c-4.1-1-9.8-1.8-8.8-0.8c2.7,2.8-7.5-2-11.1-2.6c-7.3-1.2-13.5-1.5-15.6-1.8
		c-1.1-0.2-3.6-2.1-2.8-0.4c0.7,1.5-2.5-0.7-3.1-1.6c-0.6-0.9-0.7-2.3-0.7-4.6c0.1-13.5-10.2-23.3-10.2-23.3
		c-2-2.6-7.3-5.6-12.5-8.2c20,18.2,21.6,38.5,21.6,38.5c-18.3-1.7-30.4,0.5-41.6,7.7c0.4-0.1,0.8-0.3,1.1-0.3
		c29.2-10.9,47.6-3.7,47.6-3.7s6.4,0.7,11.2,2.2c2.1,0.6-4.3,0.7,4.5,3.4c10.4,4.7,22.4,14,22.2,31.9c0,0-0.6,9.7-7,14.4
		c0,0-1.7-0.5-0.7-2.4c1-1.9,0.7-5.4-5.2-7.1c-1.1,0.4-4.2,1.3-6.6,1.4c0.6,2.9-2.2,9.8-5.5,11.3c0,0,0-1.3-1.4-5.4
		c-0.6-1.8-1.8-3.5-2.9-4.8c-0.5-0.4-1.1-0.8-1.7-0.9c0,0-0.3,0.7-5.5-0.2c0,0,1.2,8.5-6.9,11.7c0,0-2-0.2-0.8-1.7
		c1.2-1.5,1.7-7.9-2.5-10.5c-0.8,0.4-3.8-0.3-7.6,0.7c1.1,11.1-13.3,14.8-11.3,12.8c2-2.1,3-4,3-7.1c0-3.1-4.7-5.7-4.7-5.7
		c-9.2-6.9-5.3-7.4-12.5-14.7c-7-7.1-2.3,0.1-4.8-1.2c-2.2-1.1-7.4-4.4-9.6-5.2c0,0-5.4-2.2-5.1,0.2c0.3,2.3-2,2.1-3.1-0.2
		c-5.7,10.1-10.7,23.2-14.1,38.4c-2,9.2-5.8,19.5-7.9,30.2c-0.4,1.9-7.6,31.4-7.6,31.4c-0.2,0.6-0.4,1.5-0.6,2.6
		c1.8-0.7,3.5-0.6,3.5-0.6c2.3,1.7-6,18.2-7.2,19.9c-0.2,0.2-0.4,0.5-0.6,0.7c-1.6,7.6-3,14.5-3.5,16.2c-3.2,13-12.3,36.8-14.7,51.4
		c-6.8,42.6-3.2,64.4-3.5,74.8c0,0-2.8,2.5-5.9,1.8c-6.5-1.5-22.2-41.5-25.5-71.8c-1.5-13.1-1.6-24-4.2-46.8
		c-0.9-7.2-1.9-16.1-3.7-24.5c-0.7-0.5-1.5-1.1-1.9-1.8c-1.1-1.6-9.5-18.1-7.2-19.9c0,0,2.1-0.1,4.1,0.9c0,0,0.3,0.1,0.9,0.4
		c-0.4-2.1-0.8-4.1-1.1-6.1c0,0-3.2-22.6-3.8-27.3c-1.1-8.5-2.2-18.2-4-29.5c-3-18.5-6.7-26.8-11.1-40.3c-1.8-5.6-5.3-10.1-9.6-13.8
		c5.2,5,9.1,11.8,8.5,13.5c-1,2.6-3.5,2.9-3.2,0.5s-5.1-0.2-5.1-0.2c-2.3,0.8-7.4,4-9.6,5.2c-2.4,1.3,2.2-5.9-4.8,1.2
		c-7.2,7.3-3.3,7.8-12.5,14.7c0,0-4.7,2.6-4.7,5.7c0,3.1,1,5,3,7.1c2,2.1-12.4-1.7-11.3-12.8c-3.8-1-6.8-0.3-7.6-0.7
		c-4.2,2.6-3.7,9-2.5,10.5c1.2,1.6-0.8,1.7-0.8,1.7c-8.1-3.3-6.9-11.7-6.9-11.7c-5.2,1-5.5,0.2-5.5,0.2c-0.6,0.1-1.2,0.4-1.7,0.9
		c-1.1,1.3-2.2,3-2.9,4.8c-1.5,4.1-1.4,5.4-1.4,5.4c-3.3-1.5-6.1-8.4-5.5-11.3c-2.3-0.1-5.5-1-6.6-1.4c-5.9,1.7-6.2,5.2-5.2,7.1
		c1,1.9-0.7,2.4-0.7,2.4c-6.4-4.7-7-14.4-7-14.4c-0.2-18,11.8-27.2,22.2-31.9c8.8-2.7,2.4-2.8,4.5-3.4c4.8-1.5,11.2-2.2,11.2-2.2
		s18.4-7.2,47.6,3.7c0.6,0.1,1.3,0.4,2,0.6c-15.6-8.9-35.9-10.1-35.9-10.1c-0.6-0.1,1.5-18.9,19.8-36.2c-5.1,2.6-10.3,5.5-12.3,8.1
		c0,0-10.2,9.8-10.2,23.3c0,2.3-0.2,3.7-0.7,4.6c-0.6,0.9-3.8,3.1-3.1,1.6c0.8-1.6-1.7,0.3-2.8,0.4c-2,0.3-8.3,0.5-15.6,1.8
		c-3.6,0.6-13.8,5.4-11.1,2.6c1-1-4.7-0.2-8.8,0.8c-8.2,1.9-11.2,3.9-14.4,6.1c-3.5,2.3-7.9,1-12.2-2c-2.6-1.8-5.2-4.3-7.4-7.1
		c-6-7.4-5.2-25.4-5.2-25.4c-2,6.2-1.1,14.3-1.1,14.3C22.3,84.9,4.4,59.8,4,51.2c-0.3-6.5-1.5-19.8-1.4-25.8
		c0-6.4,18.4,3.1,18.5-0.1c0.1-2.4,15.6,0.3,20.2,3.4c4.6,3.1,44.5,9.3,83.4,0c4.9-1.2,8.5-2,11.1-2.5
		c16.9-12.6,43.8-23.1,86.8-22.8c42.7,0.3,69.6,10.4,86.6,22.7c2.6,0.5,6.4,1.4,11.6,2.6c38.9,9.3,78.7,3.1,83.4,0
		c4.6-3.1,20.1-5.8,20.2-3.4c0.1,3,16.6-8.6,16.6-2.8c0.1,12.7,1.4,31.3,0.7,44.5C441.4,75.1,423.2,85.2,421.8,89.2 M246.9,243.4
		c2.7-5.6,8.7-16.8,2.7-13.1c-5.9,3.7-5.5,7.2-5.5,7.2s-1.7,7.5-0.2,8C244.9,245.9,245.9,245.5,246.9,243.4 M186.2,245.5
		c1.5-0.5-0.2-8-0.2-8s0.5-3.5-5.5-7.2c-5.9-3.7,0,7.5,2.7,13.1C184.3,245.5,185.3,245.9,186.2,245.5"/>
	<path style="fill:#FFFFFF;" d="M198.2,285.7c0.6,1.6,0.2,3.3-0.9,3.7c-1.1,0.4-2.5-0.6-3.1-2.2c-0.6-1.6-0.2-3.3,0.9-3.7
		C196.3,283.1,197.6,284.1,198.2,285.7"/>
	<path style="fill:#FFFFFF;" d="M228.2,285.7c-0.6,1.6-0.2,3.3,0.9,3.7c1.1,0.4,2.5-0.6,3.1-2.2c0.6-1.6,0.2-3.3-0.9-3.7
		C230.2,283.1,228.8,284.1,228.2,285.7"/>
	<path style="fill:#FFFFFF;" d="M197.6,276.4c0,0-1.9-2.8-4.7-2.9c-2.8-0.1-1.6,3.1-1.5,4.3c0.1,1.2-0.7-2.4,1.3-3.1
		C194.2,274.1,196.3,275,197.6,276.4"/>
	<path style="fill:none;stroke:#FFFFFF;stroke-width:0.3;" d="M197.6,276.4c0,0-1.9-2.8-4.7-2.9c-2.8-0.1-1.6,3.1-1.5,4.3
		c0.1,1.2-0.7-2.4,1.3-3.1C194.2,274.1,196.3,275,197.6,276.4z"/>
	<path style="fill:#FFFFFF;" d="M228.6,277.7c0,0,1.9-2.8,4.7-2.9c2.8-0.1,1.6,3.1,1.5,4.3c-0.1,1.2,0.7-2.4-1.3-3.1
		C232,275.4,229.9,276.4,228.6,277.7"/>
	<path style="fill:none;stroke:#FFFFFF;stroke-width:0.3;" d="M228.6,277.7c0,0,1.9-2.8,4.7-2.9c2.8-0.1,1.6,3.1,1.5,4.3
		c-0.1,1.2,0.7-2.4-1.3-3.1C232,275.4,229.9,276.4,228.6,277.7z"/>
	<path style="fill:#FFFFFF;" d="M190.1,107.9c-0.3-0.9-0.7-1.7-1.2-2.5c-0.1-0.2-0.2-0.5-0.4-0.7c-3.2-5.5-8.9-8.4-16-9.9
		c-0.1,0-0.2,0-0.2-0.1c-0.3-0.1-0.5-0.1-0.8-0.2c-6.6-1.4-14.1-1.6-21.5-1.2c-1.2,0-2.5,0.1-3.7,0.1c-18.1,0.6-17.7-4.5-17.7-4.5
		c-3.1,4.1-1.7,5.7,0.7,6.3c-12.8,0.1-14.4-5.6-14.4-5.6c-4.2,7.1,17.2,9.2,23.1,11.3c6.9,2.5,20.2,10.6,24.5,22.3
		c6.2,16.7,9.9,29.6,14.7,62.2c0,0,6.9-23.3,10.1-33.6C190.6,141.5,196.1,124,190.1,107.9"/>
	<path style="fill:#FFFFFF;" d="M321,96.1c-2.6-0.6-5-0.5-8.9-0.2c-3.9,0.3-4.9-1.7-1.5-2.9c3.4-1.2,10.5-0.6,10.5-0.6
		c-5-2.4-11.1-2.7-17.7-3.2c-6.6-0.5,1.1-3,1.1-3c-37.5,2.4-52.3,24.9-52.3,24.9s0.1,0,0.3-0.1c-14.1,14.7-9.4,34.3-6.5,27.4
		c3.2-7.6,9.6-13.6,5.3,0c-4.2,13.6,6.6,68.9,6.6,52.6c0,0,7-49,27.1-76c1.8-2.2,4-4.7,6.7-7.3C301.6,97.6,323.6,96.6,321,96.1"/>
</g>
</svg>
