<?xml version="1.0" encoding="utf-8"?>
<!-- Generator: Adobe Illustrator 18.0.0, SVG Export Plug-In . SVG Version: 6.00 Build 0)  -->
<!DOCTYPE svg PUBLIC "-//W3C//DTD SVG 1.1//EN" "http://www.w3.org/Graphics/SVG/1.1/DTD/svg11.dtd">
<svg version="1.1" id="Layer_1" xmlns="http://www.w3.org/2000/svg" xmlns:xlink="http://www.w3.org/1999/xlink" x="0px" y="0px"
	 viewBox="0 0 581.9 187.7" style="enable-background:new 0 0 581.9 187.7;" xml:space="preserve">
<pattern  x="190.9" y="-5.7" width="57.6" height="57.6" patternUnits="userSpaceOnUse" id="New_Pattern_Swatch_3" viewBox="16 -57.6 57.6 57.6" style="overflow:visible;">
	<g>
		<polygon style="fill:none;" points="16,0 16,-57.6 73.6,-57.6 73.6,0 		"/>
		<line style="fill:#FFFFFF;" x1="0" y1="-6" x2="6" y2="0"/>
		<line style="fill:#FFFFFF;" x1="0" y1="0" x2="6" y2="-6"/>
		<line style="fill:none;stroke:#3FA9F5;stroke-width:0.3;" x1="68.5" y1="-54" x2="71.5" y2="-54"/>
		<line style="fill:none;stroke:#3FA9F5;stroke-width:0.3;" x1="54.1" y1="-54" x2="57.1" y2="-54"/>
		<line style="fill:none;stroke:#3FA9F5;stroke-width:0.3;" x1="39.7" y1="-54" x2="42.7" y2="-54"/>
		<line style="fill:none;stroke:#3FA9F5;stroke-width:0.3;" x1="25.3" y1="-54" x2="28.3" y2="-54"/>
		<line style="fill:none;stroke:#3FA9F5;stroke-width:0.3;" x1="61.3" y1="-46.8" x2="64.3" y2="-46.8"/>
		<line style="fill:none;stroke:#3FA9F5;stroke-width:0.3;" x1="46.9" y1="-46.8" x2="49.9" y2="-46.8"/>
		<line style="fill:none;stroke:#3FA9F5;stroke-width:0.3;" x1="32.5" y1="-46.8" x2="35.5" y2="-46.8"/>
		<line style="fill:none;stroke:#3FA9F5;stroke-width:0.3;" x1="18.1" y1="-46.8" x2="21.1" y2="-46.8"/>
		<line style="fill:none;stroke:#3FA9F5;stroke-width:0.3;" x1="68.5" y1="-39.6" x2="71.5" y2="-39.6"/>
		<line style="fill:none;stroke:#3FA9F5;stroke-width:0.3;" x1="54.1" y1="-39.6" x2="57.1" y2="-39.6"/>
		<line style="fill:none;stroke:#3FA9F5;stroke-width:0.3;" x1="39.7" y1="-39.6" x2="42.7" y2="-39.6"/>
		<line style="fill:none;stroke:#3FA9F5;stroke-width:0.3;" x1="25.3" y1="-39.6" x2="28.3" y2="-39.6"/>
		<line style="fill:none;stroke:#3FA9F5;stroke-width:0.3;" x1="61.3" y1="-32.4" x2="64.3" y2="-32.4"/>
		<line style="fill:none;stroke:#3FA9F5;stroke-width:0.3;" x1="46.9" y1="-32.4" x2="49.9" y2="-32.4"/>
		<line style="fill:none;stroke:#3FA9F5;stroke-width:0.3;" x1="32.5" y1="-32.4" x2="35.5" y2="-32.4"/>
		<line style="fill:none;stroke:#3FA9F5;stroke-width:0.3;" x1="18.1" y1="-32.4" x2="21.1" y2="-32.4"/>
		<line style="fill:none;stroke:#3FA9F5;stroke-width:0.3;" x1="68.5" y1="-25.2" x2="71.5" y2="-25.2"/>
		<line style="fill:none;stroke:#3FA9F5;stroke-width:0.3;" x1="54.1" y1="-25.2" x2="57.1" y2="-25.2"/>
		<line style="fill:none;stroke:#3FA9F5;stroke-width:0.3;" x1="39.7" y1="-25.2" x2="42.7" y2="-25.2"/>
		<line style="fill:none;stroke:#3FA9F5;stroke-width:0.3;" x1="25.3" y1="-25.2" x2="28.3" y2="-25.2"/>
		<line style="fill:none;stroke:#3FA9F5;stroke-width:0.3;" x1="61.3" y1="-18" x2="64.3" y2="-18"/>
		<line style="fill:none;stroke:#3FA9F5;stroke-width:0.3;" x1="46.9" y1="-18" x2="49.9" y2="-18"/>
		<line style="fill:none;stroke:#3FA9F5;stroke-width:0.3;" x1="32.5" y1="-18" x2="35.5" y2="-18"/>
		<line style="fill:none;stroke:#3FA9F5;stroke-width:0.3;" x1="18.1" y1="-18" x2="21.1" y2="-18"/>
		<line style="fill:none;stroke:#3FA9F5;stroke-width:0.3;" x1="68.5" y1="-10.8" x2="71.5" y2="-10.8"/>
		<line style="fill:none;stroke:#3FA9F5;stroke-width:0.3;" x1="54.1" y1="-10.8" x2="57.1" y2="-10.8"/>
		<line style="fill:none;stroke:#3FA9F5;stroke-width:0.3;" x1="39.7" y1="-10.8" x2="42.7" y2="-10.8"/>
		<line style="fill:none;stroke:#3FA9F5;stroke-width:0.3;" x1="25.3" y1="-10.8" x2="28.3" y2="-10.8"/>
		<line style="fill:none;stroke:#3FA9F5;stroke-width:0.3;" x1="61.3" y1="-3.6" x2="64.3" y2="-3.6"/>
		<line style="fill:none;stroke:#3FA9F5;stroke-width:0.3;" x1="46.9" y1="-3.6" x2="49.9" y2="-3.6"/>
		<line style="fill:none;stroke:#3FA9F5;stroke-width:0.3;" x1="32.5" y1="-3.6" x2="35.5" y2="-3.6"/>
		<line style="fill:none;stroke:#3FA9F5;stroke-width:0.3;" x1="18.1" y1="-3.6" x2="21.1" y2="-3.6"/>
		<line style="fill:none;stroke:#3FA9F5;stroke-width:0.3;" x1="3.7" y1="-46.8" x2="6.7" y2="-46.8"/>
		<line style="fill:none;stroke:#3FA9F5;stroke-width:0.3;" x1="70" y1="-55.5" x2="70" y2="-52.5"/>
		<line style="fill:none;stroke:#3FA9F5;stroke-width:0.3;" x1="55.6" y1="-55.5" x2="55.6" y2="-52.5"/>
		<line style="fill:none;stroke:#3FA9F5;stroke-width:0.3;" x1="41.2" y1="-55.5" x2="41.2" y2="-52.5"/>
		<line style="fill:none;stroke:#3FA9F5;stroke-width:0.3;" x1="26.8" y1="-55.5" x2="26.8" y2="-52.5"/>
		<line style="fill:none;stroke:#3FA9F5;stroke-width:0.3;" x1="62.8" y1="-48.3" x2="62.8" y2="-45.3"/>
		<line style="fill:none;stroke:#3FA9F5;stroke-width:0.3;" x1="48.4" y1="-48.3" x2="48.4" y2="-45.3"/>
		<line style="fill:none;stroke:#3FA9F5;stroke-width:0.3;" x1="34" y1="-48.3" x2="34" y2="-45.3"/>
		<line style="fill:none;stroke:#3FA9F5;stroke-width:0.3;" x1="19.6" y1="-48.3" x2="19.6" y2="-45.3"/>
		<line style="fill:none;stroke:#3FA9F5;stroke-width:0.3;" x1="70" y1="-41.1" x2="70" y2="-38.1"/>
		<line style="fill:none;stroke:#3FA9F5;stroke-width:0.3;" x1="55.6" y1="-41.1" x2="55.6" y2="-38.1"/>
		<line style="fill:none;stroke:#3FA9F5;stroke-width:0.3;" x1="41.2" y1="-41.1" x2="41.2" y2="-38.1"/>
		<line style="fill:none;stroke:#3FA9F5;stroke-width:0.3;" x1="26.8" y1="-41.1" x2="26.8" y2="-38.1"/>
		<line style="fill:none;stroke:#3FA9F5;stroke-width:0.3;" x1="62.8" y1="-33.9" x2="62.8" y2="-30.9"/>
		<line style="fill:none;stroke:#3FA9F5;stroke-width:0.3;" x1="48.4" y1="-33.9" x2="48.4" y2="-30.9"/>
		<line style="fill:none;stroke:#3FA9F5;stroke-width:0.3;" x1="34" y1="-33.9" x2="34" y2="-30.9"/>
		<line style="fill:none;stroke:#3FA9F5;stroke-width:0.3;" x1="19.6" y1="-33.9" x2="19.6" y2="-30.9"/>
		<line style="fill:none;stroke:#3FA9F5;stroke-width:0.3;" x1="70" y1="-26.7" x2="70" y2="-23.7"/>
		<line style="fill:none;stroke:#3FA9F5;stroke-width:0.3;" x1="55.6" y1="-26.7" x2="55.6" y2="-23.7"/>
		<line style="fill:none;stroke:#3FA9F5;stroke-width:0.3;" x1="41.2" y1="-26.7" x2="41.2" y2="-23.7"/>
		<line style="fill:none;stroke:#3FA9F5;stroke-width:0.3;" x1="26.8" y1="-26.7" x2="26.8" y2="-23.7"/>
		<line style="fill:none;stroke:#3FA9F5;stroke-width:0.3;" x1="62.8" y1="-19.5" x2="62.8" y2="-16.5"/>
		<line style="fill:none;stroke:#3FA9F5;stroke-width:0.3;" x1="48.4" y1="-19.5" x2="48.4" y2="-16.5"/>
		<line style="fill:none;stroke:#3FA9F5;stroke-width:0.3;" x1="34" y1="-19.5" x2="34" y2="-16.5"/>
		<line style="fill:none;stroke:#3FA9F5;stroke-width:0.3;" x1="19.6" y1="-19.5" x2="19.6" y2="-16.5"/>
		<line style="fill:none;stroke:#3FA9F5;stroke-width:0.3;" x1="70" y1="-12.3" x2="70" y2="-9.3"/>
		<line style="fill:none;stroke:#3FA9F5;stroke-width:0.3;" x1="55.6" y1="-12.3" x2="55.6" y2="-9.3"/>
		<line style="fill:none;stroke:#3FA9F5;stroke-width:0.3;" x1="41.2" y1="-12.3" x2="41.2" y2="-9.3"/>
		<line style="fill:none;stroke:#3FA9F5;stroke-width:0.3;" x1="26.8" y1="-12.3" x2="26.8" y2="-9.3"/>
		<line style="fill:none;stroke:#3FA9F5;stroke-width:0.3;" x1="62.8" y1="-5.1" x2="62.8" y2="-2.1"/>
		<line style="fill:none;stroke:#3FA9F5;stroke-width:0.3;" x1="48.4" y1="-5.1" x2="48.4" y2="-2.1"/>
		<line style="fill:none;stroke:#3FA9F5;stroke-width:0.3;" x1="34" y1="-5.1" x2="34" y2="-2.1"/>
		<line style="fill:none;stroke:#3FA9F5;stroke-width:0.3;" x1="19.6" y1="-5.1" x2="19.6" y2="-2.1"/>
		<line style="fill:none;stroke:#3FA9F5;stroke-width:0.3;" x1="5.2" y1="-48.3" x2="5.2" y2="-45.3"/>
	</g>
</pattern>
<g>
	<pattern  id="SVGID_1_" xlink:href="#New_Pattern_Swatch_3" patternTransform="matrix(3.1925 0 0 3.1925 18795.8496 17606.1953)">
	</pattern>
	<path style="fill:url(#SVGID_1_);" d="M576.9,186.2c-47,0-76-15.4-94.3-25.5c-10.9-6.1-11.3-6.3-20.2-6.3c-8.9,0-9.3,0.2-20.2,6.3
		c-18.3,10.2-46,25.5-94.4,25.5c-48.5,0-76.1-15.4-94.4-25.5c-10.9-6.1-11.4-6.3-20.2-6.3c-8.9,0-9.3,0.2-20.3,6.3
		c-18.3,10.2-46,25.5-94.5,25.5c-48.5,0-75.5-15.4-93.9-25.5c-10.9-6.1-10.7-6.3-19.7-6.3V1.5c47,0,75.5,15.4,93.9,25.5
		c10.9,6.1,11.1,6.3,20,6.3c8.9,0,9.2-0.2,20.1-6.3c18.3-10.2,45.9-25.5,94.4-25.5c48.5,0,76.1,15.4,94.4,25.5
		c10.9,6.1,11.4,6.3,20.2,6.3c8.9,0,9.3-0.2,20.3-6.3c18.3-10.2,46-25.5,94.5-25.5c48.5,0,75.9,15.4,94.3,25.5
		c10.9,6.1,11.1,6.3,20.1,6.3V186.2z"/>
</g>
</svg>
