<?xml version="1.0" encoding="utf-8"?>
<!-- Generator: Adobe Illustrator 18.0.0, SVG Export Plug-In . SVG Version: 6.00 Build 0)  -->
<!DOCTYPE svg PUBLIC "-//W3C//DTD SVG 1.1//EN" "http://www.w3.org/Graphics/SVG/1.1/DTD/svg11.dtd">
<svg version="1.1" id="Layer_1" xmlns="http://www.w3.org/2000/svg" xmlns:xlink="http://www.w3.org/1999/xlink" x="0px" y="0px"
	 viewBox="0 0 79.5 38.2" style="enable-background:new 0 0 79.5 38.2;" xml:space="preserve">
<g>
	<path style="fill:none;stroke:#FFFFFF;stroke-width:6;stroke-miterlimit:10;" d="M0,3.2c7.9,0,7.9,10,15.9,10c7.9,0,7.9-10,15.9-10
		c7.9,0,7.9,10,15.9,10c8,0,8-10,15.9-10s8,10,15.9,10"/>
</g>
<g>
	<path style="fill:none;stroke:#FFFFFF;stroke-width:6;stroke-miterlimit:10;" d="M0,25.2c7.9,0,7.9,10,15.9,10
		c7.9,0,7.9-10,15.9-10c7.9,0,7.9,10,15.9,10c8,0,8-10,15.9-10s8,10,15.9,10"/>
</g>
</svg>
