<?xml version="1.0" encoding="utf-8"?>
<!-- Generator: Adobe Illustrator 18.0.0, SVG Export Plug-In . SVG Version: 6.00 Build 0)  -->
<!DOCTYPE svg PUBLIC "-//W3C//DTD SVG 1.1//EN" "http://www.w3.org/Graphics/SVG/1.1/DTD/svg11.dtd">
<svg version="1.1" id="Layer_1" xmlns="http://www.w3.org/2000/svg" xmlns:xlink="http://www.w3.org/1999/xlink" x="0px" y="0px"
	 viewBox="120 30.3 180 45.4" style="enable-background:new 120 30.3 180 45.4;" xml:space="preserve">
<g>
	<path style="fill:#FFFFFF;" d="M147.9,62.2c0,2.1-0.5,4.1-1.6,5.7c-1.1,1.7-2.4,3-4.1,4.1c-1.8,1.1-3.9,1.9-6.3,2.5
		s-5.1,0.9-8.1,0.9c-1.4,0-2.9-0.1-4.5-0.2c-1.5-0.1-2.4-0.2-2.6-0.3l-0.2-5.6c0.3,0,1.3,0.1,3,0.2c1.8,0.1,3.5,0.2,5.3,0.2
		c1,0,2.4-0.1,3.9-0.3s2.9-0.5,4-0.9c1.5-0.6,2.5-1.4,3.3-2.4c0.7-0.9,1.1-2.1,1.1-3.3c0-1.2-0.3-2.1-0.9-2.9
		c-0.6-0.7-1.5-1.5-2.5-2.1c-1.2-0.8-2.8-1.6-4.8-2.5c-2-0.9-3.7-1.7-5.1-2.5c-2-1.2-3.5-2.6-4.5-4.2c-1-1.6-1.5-3.5-1.5-5.6
		s0.6-4.1,1.8-5.8c1.2-1.7,2.8-3.1,4.8-4.1c1.7-0.9,3.6-1.5,5.7-1.8c2.1-0.3,4.1-0.5,6.1-0.5c1.8,0,3.3,0,4.4,0.1
		c1.2,0.1,1.8,0.1,2,0.1l0.5,5.8c-0.2,0-1.1,0-2.7-0.2c-1.6-0.1-3.3-0.2-5.2-0.2c-1.3,0-2.6,0.1-3.9,0.3c-1.2,0.2-2.2,0.6-3.1,1
		c-1.2,0.6-2.1,1.4-2.7,2.3c-0.6,0.9-0.8,1.8-0.8,2.6c0,1.2,0.4,2.1,1.2,3c0.8,0.9,1.6,1.5,2.7,2.1c1.2,0.7,2.8,1.5,4.9,2.5
		c2.1,0.9,3.6,1.7,4.5,2.3c2.1,1.3,3.6,2.7,4.7,4.2C147.4,58.2,147.9,60,147.9,62.2z"/>
	<path style="fill:#FFFFFF;" d="M261.4,32.9c-3.8,8.6-7.9,17.7-12.1,27.4c-4.3,9.6-6.5,14.6-6.6,14.9h-5.1
		c-0.1-0.3-2.3-5.1-6.4-14.1c-4.1-9.1-8.3-18.3-12.5-27.7l6.4-2.9l15.4,36.1h0.1l14.9-36.1L261.4,32.9z"/>
	<path style="fill:#FFFFFF;" d="M221.9,75.2c-2.7,0-6.9,0-10.6,0c-3.4,0-6.6,0-9.7,0c-3.1,0-5.7,0-7.8,0c0-5,0.1-10,0.2-15.1
		s0-10.1,0-15c0-8.2-0.2-10.2-0.2-14.5c4,0,4.3,0,7,0c0,4.9,0.1,8.5,0.1,11.6c0,7.6,0,14,0,19c0,5.1,0,7.8,0,8.1c1.2,0,2.7,0,4.3,0
		c1.7,0,3.2,0,4.6,0c4.2,0,8.9,0,12.2,0C222,70.7,222,73.1,221.9,75.2z"/>
	<path style="fill:#FFFFFF;" d="M183.1,56v-6c-0.3,0-26.5,0.1-27.1,0.1v5.8C156.7,55.9,182.9,56,183.1,56z"/>
	<path style="fill:#FFFFFF;" d="M156,36.6c0.8,0,1.7,0,2.7,0c2.1,0,4.2,0,6.4,0c5,0,9.2,0,12.6,0c3.4,0,5.2,0.1,5.5,0.1v-6
		c-0.3,0-2.2,0-5.7,0c-3.5,0-8,0-13.6,0c-2.7,0-5.3,0-7.8,0V36.6z"/>
	<path style="fill:#FFFFFF;" d="M178.7,69.3c-3,0-6.6,0-11,0c-2.8,0-5.5,0-7.9,0c-1.4,0-2.7,0-3.9,0v5.9c2.6,0,5.4,0,8.5,0
		c5.4,0,9.8,0,13.4,0c3.6,0,5.6,0,5.8,0v-6C183.3,69.3,181.7,69.3,178.7,69.3z"/>
	<path style="fill:#FFFFFF;" d="M299.5,69.5c-5.5-11.9-12.2-26.4-17.8-38.9h-4.3c-5.9,13-12.3,26.9-17.8,38.7c0,0.1-0.1,0.3-0.2,0.3
		v5.6c1.2,0,2.7,0,4.3,0h30.3c1.4,0,3.4,0,5.4,0V69.5L299.5,69.5z M266.6,69.5c1.4-3,5.6-11.3,7.6-16c2.1-4.6,3.9-8.6,5.3-11.7
		l0.2,0c1.9,4.2,3.7,8.2,5.4,12.1s7.2,15.6,7.2,15.6L266.6,69.5z"/>
</g>
</svg>
