<?xml version="1.0" encoding="utf-8"?>
<!-- Generator: Adobe Illustrator 18.0.0, SVG Export Plug-In . SVG Version: 6.00 Build 0)  -->
<!DOCTYPE svg PUBLIC "-//W3C//DTD SVG 1.1//EN" "http://www.w3.org/Graphics/SVG/1.1/DTD/svg11.dtd">
<svg version="1.1" id="Layer_1" xmlns="http://www.w3.org/2000/svg" xmlns:xlink="http://www.w3.org/1999/xlink" x="0px" y="0px"
	 viewBox="0 405.3 1000 248.3" style="enable-background:new 0 405.3 1000 248.3;" xml:space="preserve">
<g>
	<path style="fill:#FFFFFF;" d="M155,581.4c0,11.7-2.8,22.8-8.9,31.7c-6.1,9.4-13.3,16.7-22.8,22.8c-10,6.1-21.7,10.6-35,13.9
		c-13.3,3.3-28.3,5-45,5c-7.8,0-16.1-0.6-25-1.1C10,653.1,5,652.5,3.9,652l-1.1-31.1c1.7,0,7.2,0.6,16.7,1.1
		c10,0.6,19.4,1.1,29.4,1.1c5.6,0,13.3-0.6,21.7-1.7s16.1-2.8,22.2-5c8.3-3.3,13.9-7.8,18.3-13.3c3.9-5,6.1-11.7,6.1-18.3
		s-1.7-11.7-5-16.1c-3.3-3.9-8.3-8.3-13.9-11.7c-6.7-4.4-15.6-8.9-26.7-13.9s-20.6-9.4-28.3-13.9c-11.1-6.7-19.4-14.4-25-23.3
		S10,486.4,10,474.7s3.3-22.8,10-32.2c6.7-9.4,15.6-17.2,26.7-22.8c9.4-5,20-8.3,31.7-10c11.7-1.7,22.8-2.8,33.9-2.8
		c10,0,18.3,0,24.4,0.6c6.7,0.6,10,0.6,11.1,0.6l2.8,32.2c-1.1,0-6.1,0-15-1.1c-8.9-0.6-18.3-1.1-28.9-1.1c-7.2,0-14.4,0.6-21.7,1.7
		c-6.7,1.1-12.2,3.3-17.2,5.6c-6.7,3.3-11.7,7.8-15,12.8c-3.3,5-4.4,10-4.4,14.4c0,6.7,2.2,11.7,6.7,16.7c4.4,5,8.9,8.3,15,11.7
		c6.7,3.9,15.6,8.3,27.2,13.9c11.7,5,20,9.4,25,12.8c11.7,7.2,20,15,26.1,23.3C152.2,559.2,155,569.2,155,581.4z"/>
	<path style="fill:#FFFFFF;" d="M785.6,418.6c-21.1,47.8-43.9,98.3-67.2,152.2c-23.9,53.3-36.1,81.1-36.7,82.8h-28.3
		c-0.6-1.7-12.8-28.3-35.6-78.3c-22.8-50.6-46.1-101.7-69.4-153.9l35.6-16.1l85.6,200.6h0.6l82.8-200.6L785.6,418.6z"/>
	<path style="fill:#FFFFFF;" d="M566.1,653.6c-15,0-38.3,0-58.9,0c-18.9,0-36.7,0-53.9,0c-17.2,0-31.7,0-43.3,0
		c0-27.8,0.6-55.6,1.1-83.9c0.6-28.3,0-56.1,0-83.3c0-45.6-1.1-56.7-1.1-80.6c22.2,0,23.9,0,38.9,0c0,27.2,0.6,47.2,0.6,64.4
		c0,42.2,0,77.8,0,105.6c0,28.3,0,43.3,0,45c6.7,0,15,0,23.9,0c9.4,0,17.8,0,25.6,0c23.3,0,49.4,0,67.8,0
		C566.7,628.6,566.7,642,566.1,653.6z"/>
	<path style="fill:#FFFFFF;" d="M350.6,547v-33.3c-1.7,0-147.2,0.6-150.6,0.6v32.2C203.9,546.4,349.4,547,350.6,547z"/>
	<path style="fill:#FFFFFF;" d="M200,439.2c4.4,0,9.4,0,15,0c11.7,0,23.3,0,35.6,0c27.8,0,51.1,0,70,0c18.9,0,28.9,0.6,30.6,0.6
		v-33.3c-1.7,0-12.2,0-31.7,0c-19.4,0-44.4,0-75.6,0c-15,0-29.4,0-43.3,0v32.8H200z"/>
	<path style="fill:#FFFFFF;" d="M326.1,620.9c-16.7,0-36.7,0-61.1,0c-15.6,0-30.6,0-43.9,0c-7.8,0-15,0-21.7,0v32.8
		c14.4,0,30,0,47.2,0c30,0,54.4,0,74.4,0c20,0,31.1,0,32.2,0v-33.3C351.7,620.9,342.8,620.9,326.1,620.9z"/>
	<path style="fill:#FFFFFF;" d="M997.2,622c-30.6-66.1-67.8-146.7-98.9-216.1h-23.9c-32.8,72.2-68.3,149.4-98.9,215
		c0,0.6-0.6,1.7-1.1,1.7v31.1c6.7,0,15,0,23.9,0h168.3c7.8,0,18.9,0,30,0V622H997.2z M814.4,622c7.8-16.7,31.1-62.8,42.2-88.9
		c11.7-25.6,21.7-47.8,29.4-65h1.1c10.6,23.3,20.6,45.6,30,67.2s40,86.7,40,86.7H814.4z"/>
</g>
</svg>
