<?xml version="1.0" encoding="utf-8"?>
<!-- Generator: Adobe Illustrator 18.0.0, SVG Export Plug-In . SVG Version: 6.00 Build 0)  -->
<!DOCTYPE svg PUBLIC "-//W3C//DTD SVG 1.1//EN" "http://www.w3.org/Graphics/SVG/1.1/DTD/svg11.dtd">
<svg version="1.1" id="Layer_1" xmlns="http://www.w3.org/2000/svg" xmlns:xlink="http://www.w3.org/1999/xlink" x="0px" y="0px"
	 viewBox="0 0 420 106" style="enable-background:new 0 0 420 106;" xml:space="preserve">
<g>
	<path style="fill:#333333;" d="M64.9,74.6c0,5-1.2,9.5-3.7,13.4c-2.5,3.9-5.7,7.1-9.6,9.5c-4.2,2.5-9.1,4.5-14.8,5.8
		c-5.7,1.3-12,2-18.9,2c-3.3,0-6.8-0.2-10.4-0.5c-3.6-0.3-5.6-0.5-6.1-0.6L0.9,91c0.6,0.1,3,0.3,7.1,0.5c4.1,0.3,8.2,0.5,12.3,0.5
		c2.4,0,5.5-0.2,9.2-0.6c3.7-0.4,6.8-1.1,9.3-2.2c3.4-1.5,5.9-3.3,7.6-5.5c1.6-2.2,2.5-4.8,2.5-7.8c0-2.8-0.7-5-2.2-6.7
		c-1.4-1.7-3.4-3.4-5.9-5c-2.7-1.8-6.5-3.8-11.2-5.8c-4.7-2.1-8.7-4-11.9-5.9c-4.6-2.8-8.1-6-10.5-9.8c-2.4-3.8-3.6-8.2-3.6-13.2
		c0-5,1.4-9.5,4.2-13.5c2.8-4,6.5-7.2,11.1-9.6c4-2.2,8.5-3.6,13.4-4.3c4.9-0.7,9.6-1.1,14.2-1.1c4.2,0,7.6,0.1,10.2,0.2
		c2.7,0.2,4.2,0.2,4.6,0.2l1.1,13.5c-0.5,0-2.6-0.1-6.3-0.4c-3.7-0.3-7.8-0.4-12.2-0.4c-3.1,0-6.1,0.3-9,0.8
		c-2.8,0.5-5.2,1.3-7.2,2.3c-2.9,1.5-5,3.3-6.3,5.4c-1.3,2.1-1.9,4.1-1.9,6.1c0,2.7,0.9,5,2.7,7c1.8,2,3.8,3.6,6.2,5
		c2.8,1.6,6.6,3.5,11.5,5.8c4.8,2.2,8.4,4,10.5,5.4c4.8,3,8.4,6.3,10.9,9.9C63.7,65.2,64.9,69.5,64.9,74.6z"/>
	<path style="fill:#333333;" d="M330.1,6.1c-8.9,20.1-18.4,41.4-28.3,63.9c-10,22.5-15.1,34.1-15.5,34.8h-12
		c-0.3-0.8-5.3-11.8-14.9-33c-9.6-21.2-19.4-42.7-29.3-64.7l15-6.7L281,84.8h0.2l34.9-84.3L330.1,6.1z"/>
	<path style="fill:#333333;" d="M237.9,105.1c-6.4,0-16.2,0-24.7,0c-8,0-15.5,0-22.7,0.1c-7.2,0.1-13.3,0.1-18.2,0.1
		c0.1-11.6,0.3-23.4,0.4-35.3c0.1-11.9,0.1-23.6,0.1-35.1c0-19.2-0.4-23.8-0.5-33.9c9.3,0,10.1,0,16.3,0c-0.1,11.4,0.2,19.8,0.2,27
		c0,17.8,0,32.6,0.1,44.5c0,11.9,0.1,18.2,0.1,18.9c2.8,0,6.2,0,10.1,0.1c4,0,7.5,0,10.7,0c9.7,0,20.7,0,28.4-0.1
		C238.1,94.5,238,100.2,237.9,105.1z"/>
	<path style="fill:#333333;" d="M147.2,60.1v-14c-0.6,0-61.8,0.2-63.4,0.2v13.6C85.5,59.9,146.6,60.1,147.2,60.1z"/>
	<path style="fill:#333333;" d="M83.8,14.8c1.8,0,3.9,0,6.2,0c4.9,0,9.9-0.1,15-0.1c11.7,0,21.5,0.1,29.4,0.1
		c7.9,0.1,12.1,0.2,12.8,0.2V0.9c-0.7,0-5.1,0-13.3,0.1c-8.2,0.1-18.8,0.1-31.8,0.1C95.8,1.1,89.8,1,83.8,1V14.8z"/>
	<path style="fill:#333333;" d="M136.9,91.3c-6.9,0.1-15.4,0.1-25.6,0.1c-6.6,0-12.8,0-18.5,0c-3.3,0-6.3-0.1-9-0.1v13.9
		c6.1-0.1,12.6-0.1,19.8-0.1c12.5,0,22.9,0,31.4,0.1c8.4,0.1,13,0.1,13.6,0.1V91.2C147.7,91.2,143.8,91.2,136.9,91.3z"/>
	<path style="fill:#333333;" d="M419.1,91.7C406.3,64,390.6,30.1,377.4,0.9h-10c-13.8,30.3-28.7,62.9-41.5,90.4
		c-0.1,0.3-0.2,0.6-0.4,0.8v13.2c2.7,0,6.2,0,10.1,0h70.8c3.3,0,8,0,12.7,0V91.7z M342.2,91.7c3.2-6.9,13-26.4,17.8-37.3
		c4.9-10.8,9-20,12.4-27.4l0.4-0.1c4.4,9.8,8.6,19.2,12.6,28.2c4,9,16.9,36.4,16.9,36.4L342.2,91.7z"/>
</g>
</svg>
